<mxfile>
    <diagram id="DbeSObqCEBHpZqMJlmhy" name="Page-1">
        <mxGraphModel dx="870" dy="564" grid="1" gridSize="10" guides="1" tooltips="1" connect="1" arrows="1" fold="1" page="1" pageScale="1" pageWidth="827" pageHeight="1169" math="0" shadow="0">
            <root>
                <mxCell id="0"/>
                <mxCell id="1" parent="0"/>
                <mxCell id="p_hHbGDJPM_kuDDimLqB-1" value="" style="html=1;verticalLabelPosition=bottom;labelBackgroundColor=#ffffff;verticalAlign=top;shadow=0;dashed=0;strokeWidth=1;shape=mxgraph.ios7.misc.iphone;strokeColor=#c0c0c0;movable=0;resizable=0;rotatable=0;deletable=0;editable=0;connectable=0;" parent="1" vertex="1">
                    <mxGeometry x="144" y="40" width="540" height="1080" as="geometry"/>
                </mxCell>
                <mxCell id="p_hHbGDJPM_kuDDimLqB-2" value="&lt;h1&gt;Reservations&lt;/h1&gt;" style="text;html=1;align=left;verticalAlign=middle;resizable=0;points=[];autosize=1;" parent="1" vertex="1">
                    <mxGeometry x="200" y="240" width="170" height="50" as="geometry"/>
                </mxCell>
                <mxCell id="p_hHbGDJPM_kuDDimLqB-7" value="&lt;h2&gt;Foo&lt;/h2&gt;" style="text;html=1;align=left;verticalAlign=middle;resizable=0;points=[];autosize=1;" parent="1" vertex="1">
                    <mxGeometry x="200" y="310" width="50" height="50" as="geometry"/>
                </mxCell>
                <mxCell id="p_hHbGDJPM_kuDDimLqB-11" value="&lt;font style=&quot;font-size: 14px&quot;&gt;Delete&lt;/font&gt;" style="rounded=1;html=1;shadow=0;dashed=0;whiteSpace=wrap;fontSize=10;fillColor=#e51400;align=center;strokeColor=#B20000;fontColor=#ffffff;" parent="1" vertex="1">
                    <mxGeometry x="560" y="323.28000000000003" width="70" height="23.44" as="geometry"/>
                </mxCell>
                <mxCell id="p_hHbGDJPM_kuDDimLqB-13" value="" style="endArrow=none;dashed=1;html=1;dashPattern=1 3;strokeWidth=2;" parent="1" edge="1">
                    <mxGeometry width="50" height="50" relative="1" as="geometry">
                        <mxPoint x="200" y="370" as="sourcePoint"/>
                        <mxPoint x="630" y="370" as="targetPoint"/>
                    </mxGeometry>
                </mxCell>
                <mxCell id="p_hHbGDJPM_kuDDimLqB-22" value="&lt;h2&gt;Bar&lt;/h2&gt;" style="text;html=1;align=left;verticalAlign=middle;resizable=0;points=[];autosize=1;" parent="1" vertex="1">
                    <mxGeometry x="199" y="390" width="50" height="50" as="geometry"/>
                </mxCell>
                <mxCell id="p_hHbGDJPM_kuDDimLqB-24" value="&lt;font style=&quot;font-size: 14px&quot;&gt;Delete&lt;/font&gt;" style="rounded=1;html=1;shadow=0;dashed=0;whiteSpace=wrap;fontSize=10;fillColor=#e51400;align=center;strokeColor=#B20000;fontColor=#ffffff;" parent="1" vertex="1">
                    <mxGeometry x="559" y="403.28000000000003" width="70" height="23.44" as="geometry"/>
                </mxCell>
                <mxCell id="p_hHbGDJPM_kuDDimLqB-25" value="" style="endArrow=none;dashed=1;html=1;dashPattern=1 3;strokeWidth=2;" parent="1" edge="1">
                    <mxGeometry width="50" height="50" relative="1" as="geometry">
                        <mxPoint x="199" y="450" as="sourcePoint"/>
                        <mxPoint x="629" y="450" as="targetPoint"/>
                    </mxGeometry>
                </mxCell>
                <mxCell id="p_hHbGDJPM_kuDDimLqB-26" value="&lt;h2&gt;Baz&lt;/h2&gt;" style="text;html=1;align=left;verticalAlign=middle;resizable=0;points=[];autosize=1;" parent="1" vertex="1">
                    <mxGeometry x="199" y="470" width="50" height="50" as="geometry"/>
                </mxCell>
                <mxCell id="p_hHbGDJPM_kuDDimLqB-28" value="&lt;font style=&quot;font-size: 14px&quot;&gt;Delete&lt;/font&gt;" style="rounded=1;html=1;shadow=0;dashed=0;whiteSpace=wrap;fontSize=10;fillColor=#e51400;align=center;strokeColor=#B20000;fontColor=#ffffff;" parent="1" vertex="1">
                    <mxGeometry x="559" y="483.28000000000003" width="70" height="23.44" as="geometry"/>
                </mxCell>
                <mxCell id="p_hHbGDJPM_kuDDimLqB-29" value="" style="endArrow=none;dashed=1;html=1;dashPattern=1 3;strokeWidth=2;" parent="1" edge="1">
                    <mxGeometry width="50" height="50" relative="1" as="geometry">
                        <mxPoint x="199" y="530" as="sourcePoint"/>
                        <mxPoint x="629" y="530" as="targetPoint"/>
                    </mxGeometry>
                </mxCell>
                <mxCell id="2" value="" style="rounded=0;whiteSpace=wrap;html=1;" parent="1" vertex="1">
                    <mxGeometry x="178" y="875" width="472" height="85" as="geometry"/>
                </mxCell>
                <mxCell id="3" value="&lt;font style=&quot;font-size: 16px&quot;&gt;Create Reservation&lt;/font&gt;" style="rounded=1;html=1;shadow=0;dashed=0;whiteSpace=wrap;fontSize=10;fillColor=#60a917;align=center;strokeColor=#2D7600;fontColor=#ffffff;" parent="1" vertex="1">
                    <mxGeometry x="430" y="890" width="200" height="40" as="geometry"/>
                </mxCell>
                <mxCell id="5" value="&lt;p&gt;&lt;span style=&quot;font-weight: normal&quot;&gt;&lt;font style=&quot;font-size: 14px&quot;&gt;Ready&lt;/font&gt;&lt;/span&gt;&lt;/p&gt;" style="text;html=1;align=right;verticalAlign=middle;resizable=0;points=[];autosize=1;fontColor=#006600;" parent="1" vertex="1">
                    <mxGeometry x="490" y="315" width="60" height="40" as="geometry"/>
                </mxCell>
                <mxCell id="6" value="&lt;p&gt;&lt;span style=&quot;font-weight: normal&quot;&gt;&lt;font style=&quot;font-size: 14px&quot;&gt;In progress&lt;/font&gt;&lt;/span&gt;&lt;/p&gt;" style="text;html=1;align=right;verticalAlign=middle;resizable=0;points=[];autosize=1;fontColor=#994C00;" parent="1" vertex="1">
                    <mxGeometry x="460" y="395" width="90" height="40" as="geometry"/>
                </mxCell>
                <mxCell id="7" value="&lt;p&gt;&lt;span style=&quot;font-weight: normal&quot;&gt;&lt;font style=&quot;font-size: 14px&quot; color=&quot;#990000&quot;&gt;Todo&lt;/font&gt;&lt;/span&gt;&lt;/p&gt;" style="text;html=1;align=right;verticalAlign=middle;resizable=0;points=[];autosize=1;fontColor=#994C00;" parent="1" vertex="1">
                    <mxGeometry x="499" y="475" width="50" height="40" as="geometry"/>
                </mxCell>
                <mxCell id="8" value="You are about to delete the reservation 'Baz'. If you proceed with this action the item will be permanently deleted." style="html=1;rounded=1;fillColor=#ffffff;strokeColor=#DFE1E5;fontSize=12;align=left;fontColor=#000000;shadow=1;arcSize=1;whiteSpace=wrap;spacing=20;verticalAlign=top;spacingTop=30;" vertex="1" parent="1">
                    <mxGeometry x="220" y="400" width="390" height="190" as="geometry"/>
                </mxCell>
                <mxCell id="9" value="Delete" style="dashed=0;html=1;rounded=1;fillColor=#DE350A;strokeColor=none;fontSize=12;align=center;fontStyle=0;strokeWidth=2;fontColor=#ffffff" vertex="1" parent="8">
                    <mxGeometry x="1" y="1" width="60" height="33" relative="1" as="geometry">
                        <mxPoint x="-140" y="-60" as="offset"/>
                    </mxGeometry>
                </mxCell>
                <mxCell id="10" value="Cancel" style="dashed=0;html=1;rounded=1;fillColor=none;strokeColor=none;fontSize=12;align=center;fontStyle=0;strokeWidth=2;fontColor=#596780" vertex="1" parent="8">
                    <mxGeometry x="1" y="1" width="50" height="33" relative="1" as="geometry">
                        <mxPoint x="-70" y="-60" as="offset"/>
                    </mxGeometry>
                </mxCell>
                <mxCell id="11" value="!" style="shape=rhombus;rounded=1;strokeColor=none;fillColor=#DE350A;fontColor=#ffffff;fontSize=12;shadow=0;align=center;arcSize=3" vertex="1" parent="8">
                    <mxGeometry width="20" height="20" relative="1" as="geometry">
                        <mxPoint x="20" y="20" as="offset"/>
                    </mxGeometry>
                </mxCell>
                <mxCell id="12" value="Delete reservation" style="dashed=0;html=1;fillColor=none;strokeColor=none;fontSize=18;align=left;fontStyle=1;fontColor=#000000" vertex="1" parent="8">
                    <mxGeometry width="290" height="33" relative="1" as="geometry">
                        <mxPoint x="50" y="13" as="offset"/>
                    </mxGeometry>
                </mxCell>
            </root>
        </mxGraphModel>
    </diagram>
</mxfile>
